<?xml version="1.0" encoding="UTF-8" standalone="yes"?>
<svg viewBox="0 0 128 128" width="128px" height="128px" version="1.0" state='normal' xmlns="http://www.w3.org/2000/svg" xmlns:xlink="http://www.w3.org/1999/xlink">
	<defs>
		<g id="elipse" viewBox="0 0 128 128">
			<ellipse id="elipse-fill" cx="64" cy="64" rx="20" ry="49" fill="#f6f7e7" />
		</g>
		<g id="elipse-stroke" viewBox="0 0 128 128">
			<ellipse cx="64" cy="64" rx="20" ry="49" stroke="#4d4939" stroke-width='3' fill="none" />
			<ellipse cx="64" cy="64" rx="20" ry="49" stroke="#9d965f" stroke-width='2.5' fill="none" />
		</g>
		<g id="corpus" >
			<use x='0' y ='0' xlink:href='#elipse' />
			<use x='0' y ='0' xlink:href='#elipse' transform="rotate(-45,64,64)"/>
			<use x='0' y ='0' xlink:href='#elipse' transform="rotate(45,64,64)"/>
			<use x='0' y ='0' xlink:href='#elipse' transform="rotate(90,64,64)"/>
			<use x='0' y ='0' xlink:href='#elipse-stroke' />
			<use x='0' y ='0' xlink:href='#elipse-stroke' transform="rotate(-45,64,64)"/>
			<use x='0' y ='0' xlink:href='#elipse-stroke' transform="rotate(45,64,64)"/>
			<use x='0' y ='0' xlink:href='#elipse-stroke' transform="rotate(90,64,64)"/>
			
			<circle cx="64" cy="64" r="26" fill="#3a3127" stroke="#b8ac82" />
		</g>
	</defs>
	
	<use x='0' y ='-8' xlink:href='#corpus' />
	
	<path d="M 64 53 L 37 126 91 126 z" fill="#f6f7e7" stroke="none" />
	<path d="M 64 53 L 37 126 91 126 z" fill="none" stroke="#4d4939" stroke-width="3" />
	<path d="M 64 53 L 37 126 91 126 z" fill="none" stroke="#9d965f" stroke-width="2.5" />
	
	<path d="M 25 86 L 103 86 103 106 25 106 z" fill="#3a3127" stroke="#4d4939" stroke-width="3" />
	<path d="M 25 86 L 103 86 103 106 25 106 z" fill="none" stroke="#9d965f" stroke-width="2.5" />
	
	<path d="M 28 90 L 28 101 M 34 91 L 29 95 34 100" fill="none" stroke="#c2beb2" stroke-width="2" />
	
	<ellipse cx="43.5" cy="95.5" rx="5" ry="5" fill="none" stroke="#c2beb2" stroke-width="2" />
	<path d="M 54 101 L 54 90 59 90 61 93 61 95 59 96 54 96" fill="none" stroke="#c2beb2" stroke-width="2" />
	
	<path d="M 65 101 L 65 90 72 90 72 101" fill="none" stroke="#c2beb2" stroke-width="2" />
	
	<path d="M 77 90 L 82 98 M 86 90 L 80 101" fill="none" stroke="#c2beb2" stroke-width="2" />
	
	<path d="M 98 92 A 5 5.5 0 1 0 98 99" fill="none" stroke="#c2beb2" stroke-width="2" />
	
	<!--<polyline stroke-width='2' fill="#f6f7e7" stroke="#827737" 
		points="64,53 29.5,127 98.5,127 64,53" stroke-linecap="round" stroke-linejoin="round" />-->
</svg>