<?xml version="1.0" encoding="UTF-8" standalone="yes"?>
<svg viewBox="0 0 128 128" width="128px" height="128px" version="1.0" state='normal' xmlns="http://www.w3.org/2000/svg" xmlns:xlink="http://www.w3.org/1999/xlink">
	<!--<circle cx="64" cy="64" r="50" stroke="#b60422" stroke-width="6" fill="none" />-->
	<defs>
		<polyline id="star" stroke-width='1' stroke="#e2bb9e" points="64,8 70,49 76,45 74,56 80,56 78,61 101,64 78,67 80,72 74,72 76,83 70,80 64,120" fill="#cc7e3e" />
		<svg id="banner">
			<polyline stroke-width='1' stroke="#166a8e" points="36,89 28,91 26,73 40,72 36,89" fill="#378e7e" />
			<polyline stroke-width='1' stroke="#166a8e" points="64,72 39,77 34,95 64,89" fill="#378e7e" />
		</svg>
		
		<path
			id="text_path"
			fill="none"
			stroke="none"
			d="M34,93 59,87 69,87 94,93" />
		
		<path
			id="text_path1"
			fill="none"
			stroke="none"
			d="M34,93 64,87" />

	</defs>
	
	<polyline stroke-width='4' stroke="#309384" points="64,2 10.306,33 10.306,95 64,126 117.694,95 117.694,33 64,2 10.306,33" fill="#101d26" />
	
	
	<polyline stroke-width='3' stroke="#2c596a" points="64,19 25.029,41.5 25.029,86.5 64,109 102.971,86.5 102.971,41.5 64,19 25.029,41.5" fill="none" />
	<polyline stroke-width='3' stroke="#2c596a" points="44.514,30.25 25.029,64 44.514,97.75 83.486,97.75 102.971,64 83.486,30.25 44.514,30.25 25.029,64" fill="none"/>
	<polyline stroke-width='3' stroke="#2c596a" points="64,41.5 83.486,30.25 83.486,52.75 102.971,64 83.486,75.25 83.486,97.75 64,86.5 44.514,97.75 44.514,75.25 25.029,64 44.514,52.75 44.514,30.25 64,41.5 83.486,30.25" fill="none" stroke-linejoin="bevel" />
	
	<circle cx="25.029" cy="41.5" r="2" fill="#0a6a87" />
	<circle cx="25.029" cy="86.5" r="2" fill="#0a6a87" />
	<circle cx="102.971" cy="86.5" r="2" fill="#0a6a87" />
	<circle cx="102.971" cy="41.5" r="2" fill="#0a6a87" />
	
	<circle cx="83.486" cy="30.25" r="2" fill="#0a6a87" />
	<circle cx="83.486" cy="52.75" r="2" fill="#0a6a87" />
	<circle cx="102.971" cy="64" r="2" fill="#0a6a87" />
	<circle cx="83.486" cy="75.25" r="2" fill="#0a6a87" />
	<circle cx="83.486" cy="97.75" r="2" fill="#0a6a87" />
	<circle cx="44.514" cy="97.75" r="2" fill="#0a6a87" />
	<circle cx="44.514" cy="75.25" r="2" fill="#0a6a87" />
	<circle cx="25.029" cy="64" r="2" fill="#0a6a87" />
	<circle cx="44.514" cy="52.75" r="2" fill="#0a6a87" />
	<circle cx="44.514" cy="30.25" r="2" fill="#0a6a87" />

	<use x='0' y ='0' xlink:href='#star'/>
	<use x='0' y ='0' xlink:href='#star' transform="rotate(180,64,64)"/>

	<use x='0' y ='0' xlink:href='#banner'/>
	<use x='-128' y ='0' xlink:href='#banner' transform="scale(-1,1)"/>
	
	
	<polyline stroke-width='1' stroke="black" points="45.5,80 45.5,88" fill="none" />
	
	<ellipse cx="53.75" cy="83" rx="2.5" ry="4" stroke-width='1' stroke="black" fill="none"/>
	<polyline stroke-width='3' stroke="#378e7e" points="55,82.5 60,82.5" fill="none" />
	
	<polyline stroke-width='1' stroke="black" points="62,78 62,86" fill="none" />
	<polyline stroke-width='1' stroke="black" points="62,81 65,81" fill="none" />
	<polyline stroke-width='1' stroke="black" points="67,78 65,81" fill="none" />
	<polyline stroke-width='1' stroke="black" points="67,86 65,81" fill="none" />
	
	<polyline stroke-width='1' stroke="black" points="72,79 72,87" fill="none" />
	<polyline stroke-width='1' stroke="black" points="72,79.5 75,79.5 77,82 77,84 72,84" fill="none" />
	
	
	<polyline stroke-width='1' stroke="black" points="81,88 83.5,81 84.5,81 87,89" fill="none" />
	<polyline stroke-width='1' stroke="black" points="82,86 86,86" fill="none" />
</svg>