<?xml version="1.0" encoding="UTF-8" standalone="yes"?>
<svg viewBox="0 0 128 128" width="128px" height="128px" version="1.0" state='normal' xmlns="http://www.w3.org/2000/svg" xmlns:xlink="http://www.w3.org/1999/xlink">
	<polyline stroke-width='2' fill="none" stroke="#e3c3a7" 
	points="19,37 22,35 27,36 29,37 33,36 37,39" />
	<polyline stroke-width='1' fill="#203b59" stroke="#e3c3a7" 
	points="80,9 73,18 102,30 126,55 118,49 128,71 125,69 127,85 128,107 125,101 122,114 110,87 92,63 106,73 72,40
	85,42 68,36 55,28 58,22 45,26 52,15 36,20 40,14 29,19 27,17 32,11 46,10 52,12 70,12 80,9" />
	<polyline stroke-width='1' fill="#203b59" stroke="#e3c3a7" 
	points="113,119 109,104 114,108 94,70 83,59 87,59 69,41 58,34 40,28 45,21 33,25 19,25 31,21 13,23 7,24 3,26 1,29 1,37 3,41
	7,44 5,38 9,33 12,31 22,32 32,33 36,36 33,40 15,40 11,39 9,37 10,42 19,45 31,47 37,51 38,47 43,55 46,55 49,61 50,75 41,88
	47,86 40,92 35,98 27,103 34,103 5,121 27,117 28,125 43,118 44,126 52,109 56,97 57,91 57,71 53,55 61,70 62,105 55,125 63,120
	66,123 74,117 80,122 79,97 77,88 71,72 57,51 39,34 40,33 42,33 59,49 65,55 75,70 86,85 81,84 86,94 90,108 92,122 98,113 101,123
	109,115 113,119" />
	
</svg>