<?xml version="1.0" encoding="UTF-8" standalone="yes"?>
<svg viewBox="0 0 128 128" width="128px" height="128px" version="1.0" state='normal' xmlns="http://www.w3.org/2000/svg" xmlns:xlink="http://www.w3.org/1999/xlink">
	<defs>
		<!--<path id="leaf" viewBox="0 0 64 64" d=" M 10,0.5 H 46 A 18 18 90 0 0 55 15 L 37,47 A 54 54 90 0 1 10,0.5" stroke="none"  fill="#523d32" stroke-width="1" />-->
		<svg id="leaf">
			<path viewBox="0 0 54 63" d="M 44 88 L 44 40 L 11 58 C 0 64 0 64 11 70 L 44 88" stroke="black"  stroke-width='1' fill="none" />
			<path viewBox="0 0 54 63" d="M 44 88 L 44 40 L 11 58 C 0 64 0 64 11 70 L 44 88" stroke="none"  fill="white" />
			<path viewBox="0 0 54 63" d="M 14 58 C 3 64 3 64 14 70 L 47 88 L 47 40 L 14 58" stroke="none"  fill="black" />
			<path viewBox="0 0 54 63" d="M 5 64 L 49 40 L 49 64 L 5 64" stroke="none"  fill="#394b59" />
			<path viewBox="0 0 54 63" d="M 5 64 L 49 64 L 49 88 L 5 64" stroke="none"  fill="#5e4325" />
			<polyline stroke-width='3' stroke="white" points="5,64 64,64" fill="none" />
		</svg>
		
		<svg id="hand">
			<path d="M 64 31 L 52 31 C 47 31 47 31 44 35 L 33 53 C 28 61 35 65 40 59 L 52 46 L 64 46" stroke-width='4.5' stroke="black" fill="#1a9184" />
			<path d="M 64 31 L 74 31 C 81 31 84 34 81 41 L 77 48 C 75 50 75 50 71 50 L 55 50 C 47 48 46 44 54 40 L 67 40 64 40" stroke-width='4.5' stroke="black" fill="#1a9184" />
			<path d="M 64 31 L 52 31 C 47 31 47 31 44 35 L 33 53 C 28 61 35 65 40 59 L 52 46 L 64 46" stroke-width='3.5' stroke="white" fill="#1a9184" />
			<path d="M 64 31 L 74 31 C 81 31 84 34 81 41 L 77 48 C 75 50 75 50 71 50 L 55 50 C 47 48 46 44 54 40 L 67 40 64 40" stroke-width='3.5' stroke="white" fill="#1a9184" />
		</svg>
		
	</defs>
	<circle cx="64" cy="64" r="50" stroke="white" stroke-width="6" fill="black" />
	<circle cx="64" cy="64" r="49" stroke="black" stroke-width="1" fill="none" />
	
	<use x='0' y ='0' xlink:href='#leaf'/>
	<use x='0' y ='0' xlink:href='#leaf' transform="rotate(90,64,64)"/>
	<use x='0' y ='0' xlink:href='#leaf' transform="rotate(180,64,64)"/>
	<use x='0' y ='0' xlink:href='#leaf' transform="rotate(270,64,64)"/>
	
	<circle cx="64" cy="64" r="32" stroke="#5e4325" stroke-width="4" fill="black" />
	<circle cx="64" cy="64" r="27" stroke="none" fill="white" />
	<polyline stroke-width='1' stroke="black" points="37,64 91,64" fill="none" />
	<polyline stroke-width='1' stroke="black" points="64,37 64,91" fill="none" />
	<ellipse cx="64" cy="64" rx="16" ry="27" stroke-width='1' stroke="black" fill="none"/>
	
	<ellipse cx="64" cy="81" rx="26" ry="7" stroke-width='1' stroke="black" fill="none"/>
	<ellipse cx="64" cy="47" rx="26" ry="7" stroke-width='1' stroke="black" fill="none"/>
	
	<polyline stroke="white" stroke-width='1' points="53,53 52,59.5 55,63 50.5,63.5 50,65 53,68.7 51.5,71.7 54,79 66.6,77 68,71 71,70 71.5,73 81,77.5 78.5,70.5 78.3,67 73,67 72,60.3 69,60 67.5,53.5 64,53.5 57,47" fill="black" />
	<polyline stroke="none" points="53,53 52,59.5 55,63 50.5,63.5 50,65 53,68.7 51.5,71.7 54,79 66.6,77 68,71 71,70 71.5,73 81,77.5 78.5,70.5 78.3,67 73,67 72,60.3 69,60 67.5,53.5 64,53.5 57,47" fill="black" />
	
	<circle cx="64" cy="64" r="32" stroke="#5e4325" stroke-width="4" fill="none" />
	
	<use x='0' y ='0' xlink:href='#hand'/>
	<use x='0' y ='0' xlink:href='#hand' transform="rotate(180,64,64)"/>
	
	<text x="60" y="28" fill="white" font-size="12" transform="rotate(45,64,64)">S</text>
	<text x="60" y="28" fill="white" font-size="12" transform="rotate(-45,64,64)">P</text>
	<text x="60" y="28" fill="white" font-size="12" transform="rotate(-45,64,64) translate(0 80)">F</text>
	<text x="60" y="28" fill="white" font-size="12" transform="rotate(45,64,64) translate(0 80)">I</text>
</svg>