<?xml version="1.0" encoding="UTF-8" standalone="yes"?>
<svg viewBox="0 0 30 30" width="30" height="30" version="1.0" state='normal' xmlns="http://www.w3.org/2000/svg" xmlns:xlink="http://www.w3.org/1999/xlink">
	<pattern id="lines" patternUnits="userSpaceOnUse" viewBox="0 0 10 10" width="5" height="5" fill-opacity="0.1">
			<!--<line stroke-width='0.1' stroke="white" x1="0" y1="1" x2="10" y2="1" />
			<line stroke-width='0.1' stroke="white" x1="0" y1="6" x2="10" y2="6" />
			
			<line stroke-width='0.1' stroke="white" x1="1" y1="0" x2="1" y2="10" />
			<line stroke-width='0.1' stroke="white" x1="6" y1="0" x2="6" y2="10" />-->
			<rect x="2.5" y="2.5" width="5" height="5" fill="white"/>
	</pattern>
	<polyline points="3,0.5 27,0.5 29.5,3 29.5,27 27,29.5 3,29.5 0.5,27 0.5,3 3,0.5" stroke="white" stroke-width='1' fill="#090a0a" stroke-linejoin="round" />
	<!--<polyline points="3,0.5 27,0.5 29.5,3 29.5,27 27,29.5 3,29.5 0.5,27 0.5,3 3,0.5" fill="url(#lines)" />-->
</svg>