<?xml version="1.0" encoding="UTF-8" standalone="no"?>
<svg
   viewBox="0 0 128 128"
   width="128px"
   height="128px"
   version="1.0"
   state="normal"
   id="svg10"
   sodipodi:docname="anomaly.svg"
   inkscape:version="1.1.2 (b8e25be833, 2022-02-05)"
   xmlns:inkscape="http://www.inkscape.org/namespaces/inkscape"
   xmlns:sodipodi="http://sodipodi.sourceforge.net/DTD/sodipodi-0.dtd"
   xmlns="http://www.w3.org/2000/svg"
   xmlns:svg="http://www.w3.org/2000/svg">
  <defs
     id="defs14" />
  <sodipodi:namedview
     id="namedview12"
     pagecolor="#ffffff"
     bordercolor="#666666"
     borderopacity="1.0"
     inkscape:pageshadow="2"
     inkscape:pageopacity="0.0"
     inkscape:pagecheckerboard="0"
     showgrid="false"
     inkscape:zoom="4.5906698"
     inkscape:cx="44.873626"
     inkscape:cy="91.054251"
     inkscape:window-width="1920"
     inkscape:window-height="1017"
     inkscape:window-x="-8"
     inkscape:window-y="-8"
     inkscape:window-maximized="1"
     inkscape:current-layer="svg10" />
  <path
     style="fill:#08fef8;stroke:#000000;stroke-width:1px;stroke-linecap:butt;stroke-linejoin:miter;stroke-opacity:1;fill-opacity:1"
     d="m 43.744886,95.730445 c 0,0 2.079422,-4.697954 8.471721,-6.238267 6.392298,-1.540313 10.628158,0 12.784596,2.002407 2.156438,2.002407 1.386282,2.079422 4.235861,2.849579 2.849579,0.770156 5.853189,1.694344 11.398315,1.386281 5.545126,-0.308062 16.866426,-6.854392 17.867629,-8.933814 1.001204,-2.079423 -3.69675,-6.315283 -5.391095,-10.397112 -1.694344,-4.081829 0,-3.157642 3.157642,-4.004814 3.157641,-0.847172 0.770156,-5.853189 -2.926595,-8.779783 C 89.646209,60.688327 86.488568,62.690734 81.32852,61.073406 76.168472,59.456077 65.078219,39.200963 61.612515,36.351384 c -3.465704,-2.849579 -2.849579,-2.464501 -5.006017,-2.695548 -2.156438,-0.231047 -3.157641,0.847172 -3.619735,4.081829 -0.462094,3.234658 0.308063,6.54633 3.080626,10.320097 2.772563,3.773766 -6.161252,4.851985 -13.169675,13.323706 -7.008424,8.471721 -5.391095,5.622142 -6.315283,8.548737 -0.924188,2.926594 -1.463297,7.855595 0.308062,10.012033 1.77136,2.156438 2.849579,0 5.468111,2.002407 2.618532,2.002407 0.462094,1.694344 -2.156438,5.930205 -2.618532,4.23586 -0.616125,4.004813 0.154031,6.315282 0.770157,2.31047 3.388689,1.540313 3.388689,1.540313 z"
     id="path22475" />
  <path
     style="fill:#08fef8;stroke:#000000;stroke-width:1px;stroke-linecap:butt;stroke-linejoin:miter;stroke-opacity:1;fill-opacity:1"
     d="m 44.746089,100.58243 c 0,0 0.53911,1.77136 -0.385078,3.31167 -0.924188,1.54032 -1.23225,2.38749 -2.772563,3.77377 -1.540313,1.38628 -0.924188,-0.61613 -4.620939,0.15403 -3.696751,0.77016 -9.318893,8.62575 -12.399519,10.3201 -3.080625,1.69434 -2.387485,-2.15644 -1.925391,-2.84958 0.462094,-0.69314 6.54633,-8.08664 7.470518,-11.16727 0.924187,-3.08063 -0.154032,-2.69555 -1.001204,-3.4657 -0.847172,-0.77016 1.617329,-3.619739 3.157642,-3.927801 1.540313,-0.308063 2.002407,-1.540313 3.850782,-0.231047 1.848375,1.309266 1.078219,2.310469 2.156438,2.695547 1.078219,0.385078 0.847172,-0.385078 3.157641,-0.539109 2.31047,-0.154032 3.311673,1.92539 3.311673,1.92539 z"
     id="path22482" />
  <path
     style="fill:#08fef8;stroke:#000000;stroke-width:1px;stroke-linecap:butt;stroke-linejoin:miter;stroke-opacity:1;fill-opacity:1"
     d="m 34.734055,88.182912 c 0,0 0.231047,-1.155234 -0.770156,-3.388688 -1.001203,-2.233454 -10.936221,1.77136 -12.168472,2.772563 -1.23225,1.001203 -1.001203,4.081829 -0.154031,6.238267 0.847172,2.156438 1.694344,2.387485 2.849579,2.233454 1.155234,-0.154031 10.24308,-7.855596 10.24308,-7.855596 z"
     id="path38431" />
  <path
     style="fill:#08fef8;stroke:#000000;stroke-width:1px;stroke-linecap:butt;stroke-linejoin:miter;stroke-opacity:1;fill-opacity:1"
     d="m 24.028881,80.404332 c 5.391095,-1.078219 5.930204,-3.157641 5.930204,-3.157641 0,0 0.693141,-1.155235 0.924188,-3.619735 0.231047,-2.464501 0.308063,-3.54272 -1.078219,-4.77497 -1.386281,-1.232251 -4.158845,0.07702 -5.699157,1.001203 -1.540313,0.924188 -17.8676298,2.541516 -18.8688332,2.618532 -1.0012034,0.07702 -1.6943442,1.078219 -0.4620939,1.540313 1.2322503,0.462094 12.5535501,1.77136 14.1708781,2.387485 1.617329,0.616125 5.083033,4.004813 5.083033,4.004813 z"
     id="path38433" />
  <path
     style="fill:#08fef8;stroke:#000000;stroke-width:1px;stroke-linecap:butt;stroke-linejoin:miter;stroke-opacity:1;fill-opacity:1"
     d="m 26.801444,61.535499 c 0,0 -3.465704,-5.237063 -2.618532,-6.931408 0.847172,-1.694344 1.155235,-2.079422 2.156438,-1.848375 1.001204,0.231047 7.77858,4.312876 7.77858,4.312876 0,0 1.540313,0.07702 1.925391,0.770157 0.385079,0.69314 -0.69314,3.234657 -0.69314,3.234657 0,0 -0.847173,1.925391 -2.618532,2.541516 -1.77136,0.616125 -5.930205,-2.079423 -5.930205,-2.079423 z"
     id="path38435" />
  <path
     style="fill:#08fef8;stroke:#000000;stroke-width:1px;stroke-linecap:butt;stroke-linejoin:miter;stroke-opacity:1;fill-opacity:1"
     d="M 46.286402,47.749699 26.570397,30.036101 c 0,0 -2.079422,-0.07702 -1.925391,1.001203 0.154031,1.078219 6.00722,9.54994 6.00722,9.54994 0,0 2.156438,1.540313 1.925391,4.004814 -0.231047,2.4645 0.53911,4.004813 0.53911,4.004813 0,0 1.309266,1.77136 3.234657,2.849579 1.925391,1.078219 1.309266,1.77136 4.77497,1.078219 3.465704,-0.693141 3.542719,-0.154031 4.389892,-1.155235 0.847172,-1.001203 0.770156,-3.619735 0.770156,-3.619735 z"
     id="path38437" />
  <path
     style="fill:#08fef8;stroke:#000000;stroke-width:1px;stroke-linecap:butt;stroke-linejoin:miter;stroke-opacity:1;fill-opacity:1"
     d="m 50.907341,29.34296 c 0,0 -1.386282,0.231047 -2.002407,2.387485 -0.616125,2.156438 0.231047,5.31408 -0.847172,7.316486 -1.078219,2.002407 -2.849579,1.155235 -3.773767,0.462094 -0.924188,-0.693141 -0.770156,-1.848375 -1.463297,-4.77497 -0.693141,-2.926594 -1.155235,-1.001203 -1.386282,-3.465704 -0.231047,-2.4645 -0.154031,-3.773766 -0.231047,-5.237063 -0.07702,-1.463298 -3.311672,-3.00361 -2.4645,-4.08183 0.847172,-1.078219 3.465704,-0.07701 4.697954,1.07822 1.23225,1.155234 2.079423,2.926594 4.004814,3.234657 1.925391,0.308062 1.540312,0.462093 2.849578,0.616125 1.309266,0.154031 0.616126,2.4645 0.616126,2.4645 z"
     id="path46748" />
  <path
     style="fill:#08fef8;stroke:#000000;stroke-width:1px;stroke-linecap:butt;stroke-linejoin:miter;stroke-opacity:1;fill-opacity:1"
     d="m 59.76414,24.645006 c 0,0 5.160048,-16.635379 6.546329,-17.4055355 1.386282,-0.7701564 2.233454,-0.6931408 2.387485,-0.1540313 0.154032,0.5391095 -0.847172,14.9410348 0,17.4055358 0.847172,2.4645 1.540313,2.310469 1.540313,3.542719 0,1.232251 0.53911,4.851986 -1.23225,5.622142 -1.77136,0.770157 -2.233454,-1.617328 -3.773767,-2.310469 C 63.691937,30.652226 62.613718,31.65343 61.304452,31.11432 59.995187,30.575211 56.683514,27.109507 56.144404,26.108303 55.605295,25.1071 59.76414,24.645006 59.76414,24.645006 Z"
     id="path55285" />
  <path
     style="fill:#08fef8;stroke:#000000;stroke-width:1px;stroke-linecap:butt;stroke-linejoin:miter;stroke-opacity:1;fill-opacity:1"
     d="m 81.790614,34.11793 c -3.54272,1.848376 -1.386282,1.540313 -3.54272,1.848376 -2.156438,0.308062 -1.155235,-0.53911 -2.387485,-0.53911 -1.23225,0 -2.233453,1.23225 -2.618532,2.541516 -0.385078,1.309266 -0.847172,2.156438 -0.385078,3.388689 0.462094,1.23225 1.386282,4.389891 2.310469,4.929001 0.924188,0.539109 1.001204,2.079422 2.31047,1.463297 1.309266,-0.616125 2.156438,-2.387485 2.541516,-3.850782 0.385078,-1.463297 2.772563,-3.619735 3.234657,-5.083033 0.462094,-1.463297 1.386282,-0.924187 0.385078,-3.234657 -1.001203,-2.310469 -1.848375,-1.463297 -1.848375,-1.463297 z"
     id="path55287" />
  <path
     style="fill:#08fef8;stroke:#000000;stroke-width:1px;stroke-linecap:butt;stroke-linejoin:miter;stroke-opacity:1;fill-opacity:1"
     d="m 96.731649,32.34657 c 0,0 -4.312876,6.54633 -7.932612,8.625753 -3.619735,2.079422 -6.777376,6.315282 -7.547533,9.318892 -0.770156,3.003611 -0.616125,3.234657 0.308063,3.465704 0.924188,0.231047 1.155234,-0.154031 2.002407,0.847172 0.847172,1.001204 0.308062,1.155235 1.309266,1.386282 1.001203,0.231047 2.772563,-0.539109 3.69675,-2.079422 0.924188,-1.540313 2.233454,-1.694344 3.003611,-2.849579 0.770156,-1.155235 0.924187,-2.618532 1.23225,-4.851986 0.308062,-2.233453 1.617328,-5.083032 3.234657,-7.23947 1.617328,-2.156438 1.540313,-3.080626 1.694344,-3.850782 0.154031,-0.770157 -1.001203,-2.772564 -1.001203,-2.772564 z"
     id="path85518" />
  <path
     style="fill:#08fef8;stroke:#000000;stroke-width:1px;stroke-linecap:butt;stroke-linejoin:miter;stroke-opacity:1;fill-opacity:1"
     d="m 93.111913,55.836342 c 0,0 2.541517,-2.849579 5.160049,-3.54272 2.618528,-0.693141 5.853188,-1.386281 8.163658,-0.924188 2.31047,0.462094 3.08063,1.694345 2.77256,3.54272 -0.30806,1.848376 -1.84837,4.312876 -3.54272,5.160048 -1.69434,0.847172 -2.69554,2.849579 -5.54512,1.694344 -2.849582,-1.155234 -2.00241,-2.541516 -3.542723,-3.00361 -1.540312,-0.462094 -1.386281,0.154032 -2.926594,-0.616125 -1.540313,-0.770156 -0.53911,-2.310469 -0.53911,-2.310469 z"
     id="path87599" />
  <path
     style="fill:#08fef8;stroke:#000000;stroke-width:1px;stroke-linecap:butt;stroke-linejoin:miter;stroke-opacity:1;fill-opacity:1"
     d="m 110.82551,67.850782 c 0,0 10.62816,-0.07701 12.16847,0.231047 1.54032,0.308063 1.61733,1.23225 0.84718,1.925391 -0.77016,0.693141 -5.69916,2.387485 -8.54874,3.00361 -2.84958,0.616126 -5.3911,0.847172 -4.69796,2.618532 0.69315,1.77136 1.84838,2.156438 0.84718,2.772563 -1.00121,0.616126 -2.31047,0.616126 -3.85079,0.385079 -1.54031,-0.231047 -5.16004,-0.07702 -6.23826,-1.77136 -1.07822,-1.694344 -0.69314,-5.930205 0.46209,-7.547533 1.15524,-1.617329 0.92419,-3.00361 3.38869,-3.311673 2.4645,-0.308063 5.62214,1.694344 5.62214,1.694344 z"
     id="path91183" />
  <path
     style="fill:#08fef8;stroke:#000000;stroke-width:1px;stroke-linecap:butt;stroke-linejoin:miter;stroke-opacity:1;fill-opacity:1"
     d="m 113.75211,94.267148 c 0,0 -1.23225,-1.386282 -2.77257,-1.540313 -1.54031,-0.154031 -0.61612,1.617329 -2.77256,1.848376 -2.15644,0.231047 -3.31167,0.770156 -5.62214,-1.309266 -2.31047,-2.079423 -1.30927,-8.856799 0.92419,-9.858003 2.23345,-1.001203 4.23586,-0.462094 5.08303,-0.154031 0.84717,0.308063 2.61853,1.848375 4.00481,4.389892 1.38628,2.541516 1.77136,3.00361 2.15644,4.004813 0.38508,1.001204 -1.0012,2.618532 -1.0012,2.618532 z"
     id="path93067" />
  <path
     style="fill:#08fef8;stroke:#000000;stroke-width:1px;stroke-linecap:butt;stroke-linejoin:miter;stroke-opacity:1;fill-opacity:1"
     d="m 97.655836,94.960289 c 0,0 3.311674,0.770156 3.927794,3.773766 0.61613,3.003615 -1.0012,3.465705 -0.30806,4.774975 0.69314,1.30926 6.93141,9.54994 7.47052,12.16847 0.53911,2.61853 -0.38508,2.4645 -1.30927,2.4645 -0.92418,0 -8.77978,-8.62575 -11.013234,-9.62696 -2.233454,-1.0012 -1.925391,-0.15403 -3.54272,-0.53911 -1.617328,-0.38508 -2.849578,-1.61733 -3.927797,-3.4657 -1.078219,-1.84838 -1.540313,-3.00361 -0.53911,-4.31288 1.001204,-1.309263 5.083033,-4.389889 6.469314,-5.08303 1.386282,-0.693141 2.772563,-0.154031 2.772563,-0.154031 z"
     id="path95091" />
  <path
     style="fill:#08fef8;stroke:#000000;stroke-width:1px;stroke-linecap:butt;stroke-linejoin:miter;stroke-opacity:1;fill-opacity:1"
     d="m 53.987966,94.498195 c 0,0 -9.01083,13.246695 -9.395908,15.865225 -0.385078,2.61853 0,2.69555 1.617328,2.77256 1.617329,0.077 1.925391,0.77016 3.157642,0 1.23225,-0.77016 1.155234,-1.61733 2.387485,-2.4645 1.23225,-0.84717 0.924187,0.15403 2.4645,-0.46209 1.540313,-0.61613 1.848376,-4.31288 2.002407,-5.77618 0.154031,-1.46329 0.924188,-6.546327 1.540313,-7.778577 0.616125,-1.23225 -0.308063,-2.156438 -1.078219,-2.464501 -0.770157,-0.308062 -2.695548,0.308063 -2.695548,0.308063 z"
     id="path96647" />
  <path
     style="fill:#08fef8;stroke:#000000;stroke-width:1px;stroke-linecap:butt;stroke-linejoin:miter;stroke-opacity:1;fill-opacity:1"
     d="m 79.249098,99.735259 c 0,0 7.316486,7.316481 8.317689,10.705171 1.001203,3.38869 0.53911,3.23466 -0.847172,3.61974 -1.386282,0.38508 -6.161252,0.92419 -8.009627,-0.53911 -1.848375,-1.4633 -1.925391,-2.69555 -2.233454,-5.08303 -0.308062,-2.38749 -2.156438,-3.77377 -1.463297,-6.23827 0.693141,-2.464501 4.235861,-2.464501 4.235861,-2.464501 z"
     id="path98983" />
  <path
     style="fill:#08fef8;stroke:#000000;stroke-width:1px;stroke-linecap:butt;stroke-linejoin:miter;stroke-opacity:1;fill-opacity:1"
     d="m 62.536703,97.270758 c 0,0 -3.157642,5.468112 -3.00361,8.779782 0.154031,3.31167 -1.232251,14.2479 -0.154032,15.55716 1.078219,1.30927 2.464501,0.92419 3.388689,-0.38508 0.924187,-1.30926 2.541516,-9.31889 4.081829,-11.39831 1.540313,-2.07942 3.542719,-1.07822 4.004813,-3.69675 0.462094,-2.61853 -1.078219,-2.69555 -1.155234,-4.15885 -0.07702,-1.46329 0.154031,-1.92539 -0.847172,-3.234655 -1.001204,-1.309266 -1.617329,-1.771359 -3.54272,-2.156438 -1.925391,-0.385078 -2.772563,0.693141 -2.772563,0.693141 z"
     id="path100695" />
</svg>
