<?xml version="1.0" encoding="UTF-8" standalone="yes"?>
<svg viewBox="0 0 128 128" width="128px" height="128px" version="1.0" state='normal' xmlns="http://www.w3.org/2000/svg" xmlns:xlink="http://www.w3.org/1999/xlink">
	<polyline points="64.51,19 116.47,109 12.55,109 64.51,19 116.47,109" stroke="#251e21" stroke-width="6" fill="#ffca06" />
	
	<svg xmlns="http://www.w3.org/2000/svg" x="34.5" y="12.5" width="60px" viewBox="-26 -28 52 52">
	<defs>
		<clipPath id="b"><circle cy="-15" r="9.5"/>
			<circle cy="-15" r="9.5" transform="rotate(120)"/>
			<circle cy="-15" r="9.5" transform="rotate(240)"/>
		</clipPath>
		<mask id="a" width="60" height="60" x="-30" y="-30" maskUnits="userSpaceOnUse">
			<path fill="#ffca06" d="M-27-27h54v54h-54z"/>
			<path d="M2-23v-4h-4v4M-.5-6v4h1v-4"/>
			<circle cy="-15" r="10.5"/>
			<g transform="rotate(120)">
				<path d="M2-23v-4h-4v4M-.5-6v4h1v-4"/>
				<circle cy="-15" r="10.5"/>
			</g>
			<g transform="rotate(240)">
				<path d="M2-23v-4h-4v4M-.5-6v4h1v-4"/>
				<circle cy="-15" r="10.5"/>
			</g><circle r="3"/>
		</mask>
	</defs>
	<g mask="url(#a)">
		<circle cy="-11" r="15"/>
		<circle cy="-11" r="15" transform="rotate(120)"/>
		<circle cy="-11" r="15" transform="rotate(240)"/>
	</g>
	<circle r="11.75" fill="none" stroke="#251e21" stroke-width="3.5" clip-path="url(#b)"/>
</svg>
</svg>