<?xml version="1.0" encoding="UTF-8" standalone="yes"?>
<svg viewBox="0 0 128 128" width="128px" height="128px" version="1.0" state='normal' xmlns="http://www.w3.org/2000/svg" xmlns:xlink="http://www.w3.org/1999/xlink">
	<circle cx="64" cy="64" r="56" stroke="#e53c35" stroke-width="5" fill="none" />
	
	<polyline fill="#e53c35"
	points="68,72 59,77 57,90 50,97 50,105 62,113 97,102 101,89 98,83 91,82 82,72 68,72" />

	<polyline fill="#e53c35"
	points="21,62 26,79 33,86 41,86 46,82 46,75 32,65" />
	
	<polyline fill="#e53c35"
	points="42,24 42,38 39,44 40,51 45,56 52,58 57,55 57,45" />

	<polyline fill="#e53c35"
	points="63,17 61,34 65,49 71,52 77,50 82,43 80,35 73,28 70,24" />

	<polyline fill="#e53c35"
	points="100,39 97,45 93,48 92,53 87,64 91,70 95,72 102,70 107,65 107,55 104,48 100,39" />
</svg>