<?xml version="1.0" encoding="UTF-8" standalone="yes"?>
<svg viewBox="0 0 128 128" width="128px" height="128px" version="1.0" state='normal' xmlns="http://www.w3.org/2000/svg" xmlns:xlink="http://www.w3.org/1999/xlink">
	<circle cx="64" cy="64" r="56" stroke="#84C2E6" stroke-width="5" fill="none" />
	<line x1="1" y1="64" x2="15" y2="64" stroke-width="10" stroke="#84C2E6" />
	<line x1="64" y1="1" x2="64" y2="15" stroke-width="10" stroke="#84C2E6" />
	<line x1="113" y1="64" x2="127" y2="64" stroke-width="10" stroke="#84C2E6" />
	<line x1="64" y1="113" x2="64" y2="127" stroke-width="10" stroke="#84C2E6" />
	
	<polyline stroke-width='8' fill="none" stroke="#84C2E6" 
	points="50,55 50,37 55,30 73,30 78,37 78,55" />
	
	<polyline stroke-width='1' fill="#84C2E6" stroke="#84C2E6" 
	points="50,55 85,55 92,64 92,92 85,100 43,100 34,92 34,64 43,55 50,55" />
	
	<line x1="64" y1="71" x2="64" y2="92" stroke-width="10" stroke="white" />
	<ellipse cx="64" cy="70" rx="10" ry="10" fill="white" />
</svg>