<?xml version="1.0" encoding="UTF-8" standalone="yes"?>
<svg viewBox="0 0 128 128" width="128px" height="128px" version="1.0" state='normal' xmlns="http://www.w3.org/2000/svg" xmlns:xlink="http://www.w3.org/1999/xlink">
	<polyline points="64.51,19 116.47,109 12.55,109 64.51,19 116.47,109" stroke="#251e21" stroke-width="6" fill="#ffca06" />
	
	<line x1="62" y1="51" x2="62" y2="103" stroke="#251e21" stroke-width="2" />
	<line x1="67" y1="51" x2="67" y2="103" stroke="#251e21" stroke-width="2" />
	
	<polyline points="49,67 58,60 62,62 62,67 58,64 51,69 49,67" stroke="#251e21" stroke-width="0.1" fill="#251e21" />
	
	<polyline points="44,75 51,87 58,81 62,85 62,71 52,81 46,74" stroke="#251e21" stroke-width="0.1" fill="#251e21" />
	
	<polyline points="62,94 57,99 59,101 62,101 62,94" stroke="#251e21" stroke-width="0.1" fill="#251e21" />
	
	<polyline points="67,63 77,71 78,78 84,82 84,85 82,85 75,79 74,74 67,82 74,92 67,99 67,95 69,92 67,89" stroke="#251e21" stroke-width="0.1" fill="#251e21" />
	
	<circle cx="76.5" cy="62.5" r="5.5" stroke-width="0.1" fill="#251e21" />
</svg>