<?xml version="1.0" encoding="UTF-8" standalone="yes"?>
<svg style="pointer-events: fill;" viewBox="0 0 128 128" width="128px" height="128px" version="1.0" state='normal' xmlns="http://www.w3.org/2000/svg" xmlns:xlink="http://www.w3.org/1999/xlink">
	<defs>
		<line id="line" stroke-width='7' stroke="yellow" x1="64" y1="14" x2="64" y2="5" />
	</defs>
	<circle cx="64" cy="64" r="45" stroke="yellow" fill="none" stroke-width="5"/>
	
	<use x='0' y ='0' xlink:href='#line' transform="rotate(0,64,64)"/>
	<use x='0' y ='0' xlink:href='#line' transform="rotate(30,64,64)"/>
	<use x='0' y ='0' xlink:href='#line' transform="rotate(60,64,64)"/>
	<use x='0' y ='0' xlink:href='#line' transform="rotate(90,64,64)"/>
	<use x='0' y ='0' xlink:href='#line' transform="rotate(120,64,64)"/>
	<use x='0' y ='0' xlink:href='#line' transform="rotate(150,64,64)"/>
	<use x='0' y ='0' xlink:href='#line' transform="rotate(180,64,64)"/>
	<use x='0' y ='0' xlink:href='#line' transform="rotate(-30,64,64)"/>
	<use x='0' y ='0' xlink:href='#line' transform="rotate(-60,64,64)"/>
	<use x='0' y ='0' xlink:href='#line' transform="rotate(-90,64,64)"/>
	<use x='0' y ='0' xlink:href='#line' transform="rotate(-120,64,64)"/>
	<use x='0' y ='0' xlink:href='#line' transform="rotate(-150,64,64)"/>
	<use x='0' y ='0' xlink:href='#line' transform="rotate(0,64,64)"/>
	
	<polyline stroke-width='1' fill="yellow" stroke="#e3c3a7" 
	points="40,40 40,80 64,95 88,80 88,40 64,50" />
</svg>