<?xml version="1.0" encoding="UTF-8" standalone="yes"?>
<svg viewBox="0 0 128 128" width="128px" height="128px" version="1.0" state='normal' xmlns="http://www.w3.org/2000/svg" xmlns:xlink="http://www.w3.org/1999/xlink">
	<circle cx="64" cy="64" r="56" stroke="#84C2E6" stroke-width="5" fill="none" />
	<line x1="1" y1="64" x2="15" y2="64" stroke-width="10" stroke="#84C2E6" />
	<line x1="64" y1="1" x2="64" y2="15" stroke-width="10" stroke="#84C2E6" />
	<line x1="113" y1="64" x2="127" y2="64" stroke-width="10" stroke="#84C2E6" />
	<line x1="64" y1="113" x2="64" y2="127" stroke-width="10" stroke="#84C2E6" />
	
	<polyline stroke-width='1' fill="#84C2E6" stroke="#84C2E6" 
	points="55,54 61,55 72,55 81,64 82,64 86,69 86,77 85,78 87,83 86,84 79,92 77,97 49,95 41,84 40,76 40,73 51,57 55,54" />
	
	<polyline stroke-width='1' fill="#84C2E6" stroke="#84C2E6" 
	points="55,34 61,27 64,32 73,32 76,30 83,31 76,42 70,46 55,46 52,37 52,34 55,34" />
</svg>