<svg xmlns="http://www.w3.org/2000/svg" width="600" height="600">
	<title>6.6 Подземный пешеходный переход</title>
	<g transform="translate(0 -452.362)">
		<rect style="color:#000;fill:#fff;fill-opacity:1;stroke:none;stroke-width:1.9999997599999999;marker:none;visibility:visible;display:inline;overflow:visible;enable-background:accumulate;opacity:1" width="600" height="600" y="452.362" ry="45" rx="45"/>
		<path style="opacity:1;color:#000;fill:#08fef8;fill-opacity:1;fill-rule:nonzero;stroke:none;stroke-width:3.5429999799999998;marker:none;visibility:visible;display:inline;overflow:visible;enable-background:accumulate" d="M45 20c-13.85 0-25 11.15-25 25v495h120v-40h110v-40h110v-40h110v-40h110V45c0-13.85-11.15-25-25-25H45zm208.5 30c21.97 0 31 16.518 31 30 0 23.445-31.858 40-44 40-17.314 0-28-16.479-28-31.594 0-17.8 15.258-38.406 41-38.406zm23.656 69.875a9.891 9.891 0 0 1 5.219 1.688l66.938 45.156a6.96 6.96 0 0 1 3 4.687l11.093 70.094c1.383 8.728-4.585 16.93-13.312 18.313-8.728 1.382-16.9-4.585-18.281-13.313l-8.938-56.344a6.96 6.96 0 0 0-3-4.687l-32.781-22.125 14.156 89.5a9.978 9.978 0 0 1-1.5 7l-52.688 81.125a7 7 0 0 0-.187 7.312l44.594 77.219c5.246 9.088 2.119 20.722-6.969 25.969-9.088 5.246-20.722 2.119-25.969-6.969l-57.875-100.281a7 7 0 0 1 .188-7.313l42.281-65.125a6.976 6.976 0 0 0 1.063-4.719l-15.032-114.125c-.528-4.01 1.435-7.946 4.938-9.968l37.687-21.781c1.656-.956 3.537-1.377 5.375-1.313zm-55.75 66 5.656 43.031-35.718 42.594c-5.68 6.77-15.794 7.649-22.563 1.969-6.769-5.68-7.649-15.762-1.969-22.531l54.594-65.063zm-15.875 190.813 24.125 41.75-25.75 63.687c-3.93 9.73-14.99 14.43-24.719 10.5-9.729-3.93-14.43-15.02-10.5-24.75l36.844-91.188zM490 420v40H380v40H270v40H160v40h395c13.85 0 25-11.15 25-25V420h-90z" transform="translate(0 452.362)"/>
		<rect rx="44" ry="44" y="453.362" x="1" height="598" width="598" style="color:#000;fill:none;stroke:#000;stroke-width:2;stroke-miterlimit:4;stroke-opacity:1;stroke-dasharray:none;marker:none;visibility:visible;display:inline;overflow:visible;enable-background:accumulate;opacity:1"/>
	</g>
</svg>