<?xml version="1.0" encoding="UTF-8" standalone="yes"?>
<svg viewBox="0 0 128 128" width="128px" height="128px" version="1.0" state='normal' xmlns="http://www.w3.org/2000/svg" xmlns:xlink="http://www.w3.org/1999/xlink">
	<polyline stroke-width='10' fill="none" stroke="#001417" 
	points="64,8 120,64 64,120 8,64 64,8 120,64" />
	 
	<polyline stroke-width='10' fill="none" stroke="#001417" 
	points="29,45 65,116" />
	
	<path
     style="fill:#33a3c2;stroke:#001417;stroke-width:1;stroke-linecap:butt;stroke-linejoin:miter;stroke-opacity:1"
     d="m 36.068729,49.997709 c 7.770904,-6.89118 12.609392,-9.383734 19.647193,-10.996564 7.037801,-1.612829 14.515464,8.210768 14.515464,8.210768 0,0 3.079038,4.838488 17.741123,-0.733104 14.662081,-5.571593 13.928981,2.932417 13.928981,2.932417 0,0 -6.451318,14.515464 -8.064148,16.128293 -1.612829,1.612829 -6.158075,7.917526 -10.556701,9.676976 -4.398625,1.75945 -5.571592,3.225658 -8.064146,2.785796 -2.492555,-0.439863 -4.105384,-0.146621 -6.158076,-1.612829 -2.052692,-1.466209 0.586484,-3.812142 -1.172967,-5.13173 -1.75945,-1.319588 -7.0378,2.639175 -9.383734,4.691867 -2.345933,2.052692 -5.718213,3.812142 -8.064146,7.770905 -2.345934,3.958763 -5.424972,-4.398625 -3.812142,-7.331042 1.612829,-2.932417 3.225658,-3.37228 4.105383,-9.090493 0.879725,-5.718213 -2.639175,-7.917526 -5.27835,-8.797251 -2.639175,-0.879725 -5.864834,-1.612829 -8.943872,-1.612829 -3.079038,0 -0.439862,-6.89118 -0.439862,-6.89118 z"
     id="path898" />
	 
	<polyline stroke-width='8' fill="none" stroke="#33a3c2" 
	points="64,8 120,64 64,120 8,64 64,8 120,64" />
	 
	<polyline stroke-width='8' fill="none" stroke="#33a3c2" 
	points="29,45 65,116" />
	 
</svg>